<svg viewBox="0 0 330 200" xmlns="http://www.w3.org/2000/svg"><g><g><g><g><g><line x1="80" y1="177" x2="75" y2="177" style="visibility: inherit;" fill="rgb(0, 0, 0)" stroke="rgb(204, 204, 204)" stroke-width="1px"></line><line x1="80" y1="159.3" x2="75" y2="159.3" style="visibility: inherit;" fill="rgb(0, 0, 0)" stroke="rgb(204, 204, 204)" stroke-width="1px"></line><line x1="80" y1="141.6" x2="75" y2="141.6" style="visibility: inherit;" fill="rgb(0, 0, 0)" stroke="rgb(204, 204, 204)" stroke-width="1px"></line><line x1="80" y1="123.89999999999999" x2="75" y2="123.89999999999999" style="visibility: inherit;" fill="rgb(0, 0, 0)" stroke="rgb(204, 204, 204)" stroke-width="1px"></line><line x1="80" y1="106.2" x2="75" y2="106.2" style="visibility: inherit;" fill="rgb(0, 0, 0)" stroke="rgb(204, 204, 204)" stroke-width="1px"></line><line x1="80" y1="88.5" x2="75" y2="88.5" style="visibility: inherit;" fill="rgb(0, 0, 0)" stroke="rgb(204, 204, 204)" stroke-width="1px"></line><line x1="80" y1="70.8" x2="75" y2="70.8" style="visibility: inherit;" fill="rgb(0, 0, 0)" stroke="rgb(204, 204, 204)" stroke-width="1px"></line><line x1="80" y1="53.10000000000001" x2="75" y2="53.10000000000001" style="visibility: inherit;" fill="rgb(0, 0, 0)" stroke="rgb(204, 204, 204)" stroke-width="1px"></line><line x1="80" y1="35.39999999999999" x2="75" y2="35.39999999999999" style="visibility: inherit;" fill="rgb(0, 0, 0)" stroke="rgb(204, 204, 204)" stroke-width="1px"></line><line x1="80" y1="17.699999999999996" x2="75" y2="17.699999999999996" style="visibility: inherit;" fill="rgb(0, 0, 0)" stroke="rgb(204, 204, 204)" stroke-width="1px"></line><line x1="80" y1="0" x2="75" y2="0" style="visibility: inherit;" fill="rgb(0, 0, 0)" stroke="rgb(204, 204, 204)" stroke-width="1px"></line></g><g transform="translate(70, 0)"><text x="0" y="177" dx="0em" dy="0.3em" style="text-anchor: end; visibility: hidden; font-family: Roboto, sans-serif; font-size: 12px; font-weight: 200;" fill="rgb(33, 33, 33)" stroke="none" stroke-width="1px">-5e+3</text><text x="0" y="159.3" dx="0em" dy="0.3em" style="text-anchor: end; visibility: inherit; font-family: Roboto, sans-serif; font-size: 12px; font-weight: 200;" fill="rgb(33, 33, 33)" stroke="none" stroke-width="1px">-4.5e+3</text><text x="0" y="141.6" dx="0em" dy="0.3em" style="text-anchor: end; visibility: hidden; font-family: Roboto, sans-serif; font-size: 12px; font-weight: 200;" fill="rgb(33, 33, 33)" stroke="none" stroke-width="1px">-4e+3</text><text x="0" y="123.89999999999999" dx="0em" dy="0.3em" style="text-anchor: end; visibility: inherit; font-family: Roboto, sans-serif; font-size: 12px; font-weight: 200;" fill="rgb(33, 33, 33)" stroke="none" stroke-width="1px">-3.5e+3</text><text x="0" y="106.2" dx="0em" dy="0.3em" style="text-anchor: end; visibility: hidden; font-family: Roboto, sans-serif; font-size: 12px; font-weight: 200;" fill="rgb(33, 33, 33)" stroke="none" stroke-width="1px">-3e+3</text><text x="0" y="88.5" dx="0em" dy="0.3em" style="text-anchor: end; visibility: inherit; font-family: Roboto, sans-serif; font-size: 12px; font-weight: 200;" fill="rgb(33, 33, 33)" stroke="none" stroke-width="1px">-2.5e+3</text><text x="0" y="70.8" dx="0em" dy="0.3em" style="text-anchor: end; visibility: hidden; font-family: Roboto, sans-serif; font-size: 12px; font-weight: 200;" fill="rgb(33, 33, 33)" stroke="none" stroke-width="1px">-2e+3</text><text x="0" y="53.10000000000001" dx="0em" dy="0.3em" style="text-anchor: end; visibility: inherit; font-family: Roboto, sans-serif; font-size: 12px; font-weight: 200;" fill="rgb(33, 33, 33)" stroke="none" stroke-width="1px">-1.5e+3</text><text x="0" y="35.39999999999999" dx="0em" dy="0.3em" style="text-anchor: end; visibility: hidden; font-family: Roboto, sans-serif; font-size: 12px; font-weight: 200;" fill="rgb(33, 33, 33)" stroke="none" stroke-width="1px">-1e+3</text><text x="0" y="17.699999999999996" dx="0em" dy="0.3em" style="text-anchor: end; visibility: inherit; font-family: Roboto, sans-serif; font-size: 12px; font-weight: 200;" fill="rgb(33, 33, 33)" stroke="none" stroke-width="1px">-500</text><text x="0" y="0" dx="0em" dy="0.3em" style="text-anchor: end; visibility: hidden; font-family: Roboto, sans-serif; font-size: 12px; font-weight: 200;" fill="rgb(33, 33, 33)" stroke="none" stroke-width="1px">0</text></g><line x1="80" y1="0" x2="80" y2="177" fill="rgb(0, 0, 0)" stroke="rgb(204, 204, 204)" stroke-width="1px"></line></g></g><g transform="translate(80, 0)" clip-path="url(#clip_0)"><clipPath id="clip_0"><rect width="250" height="177"></rect></clipPath><g><g><g><line x1="0" y1="0" x2="0" y2="177" fill="rgb(0, 0, 0)" stroke="rgb(66, 66, 66)" stroke-width="1px" opacity="0.25"></line><line x1="17.857142857142858" y1="0" x2="17.857142857142858" y2="177" fill="rgb(0, 0, 0)" stroke="rgb(66, 66, 66)" stroke-width="1px" opacity="0.25"></line><line x1="35.714285714285715" y1="0" x2="35.714285714285715" y2="177" fill="rgb(0, 0, 0)" stroke="rgb(66, 66, 66)" stroke-width="1px" opacity="0.25"></line><line x1="53.57142857142857" y1="0" x2="53.57142857142857" y2="177" fill="rgb(0, 0, 0)" stroke="rgb(66, 66, 66)" stroke-width="1px" opacity="0.25"></line><line x1="71.42857142857143" y1="0" x2="71.42857142857143" y2="177" fill="rgb(0, 0, 0)" stroke="rgb(66, 66, 66)" stroke-width="1px" opacity="0.25"></line><line x1="89.28571428571429" y1="0" x2="89.28571428571429" y2="177" fill="rgb(0, 0, 0)" stroke="rgb(66, 66, 66)" stroke-width="1px" opacity="0.25"></line><line x1="107.14285714285714" y1="0" x2="107.14285714285714" y2="177" fill="rgb(0, 0, 0)" stroke="rgb(66, 66, 66)" stroke-width="1px" opacity="0.25"></line><line x1="125" y1="0" x2="125" y2="177" fill="rgb(0, 0, 0)" stroke="rgb(66, 66, 66)" stroke-width="1px" opacity="0.25"></line><line x1="142.85714285714286" y1="0" x2="142.85714285714286" y2="177" fill="rgb(0, 0, 0)" stroke="rgb(66, 66, 66)" stroke-width="1px" opacity="0.25"></line><line x1="160.71428571428572" y1="0" x2="160.71428571428572" y2="177" fill="rgb(0, 0, 0)" stroke="rgb(66, 66, 66)" stroke-width="1px" opacity="0.25"></line><line x1="178.57142857142858" y1="0" x2="178.57142857142858" y2="177" fill="rgb(0, 0, 0)" stroke="rgb(66, 66, 66)" stroke-width="1px" opacity="0.25"></line><line x1="196.42857142857142" y1="0" x2="196.42857142857142" y2="177" fill="rgb(0, 0, 0)" stroke="rgb(66, 66, 66)" stroke-width="1px" opacity="0.25"></line><line x1="214.28571428571428" y1="0" x2="214.28571428571428" y2="177" fill="rgb(0, 0, 0)" stroke="rgb(66, 66, 66)" stroke-width="1px" opacity="0.25"></line><line x1="232.14285714285714" y1="0" x2="232.14285714285714" y2="177" fill="rgb(0, 0, 0)" stroke="rgb(66, 66, 66)" stroke-width="1px" opacity="0.25"></line><line x1="250" y1="0" x2="250" y2="177" fill="rgb(0, 0, 0)" stroke="rgb(66, 66, 66)" stroke-width="1px" opacity="0.25"></line></g><g><line x1="0" y1="177" x2="250" y2="177" fill="rgb(0, 0, 0)" stroke="rgb(66, 66, 66)" stroke-width="1px" opacity="0.25"></line><line x1="0" y1="159.3" x2="250" y2="159.3" fill="rgb(0, 0, 0)" stroke="rgb(66, 66, 66)" stroke-width="1px" opacity="0.25"></line><line x1="0" y1="141.6" x2="250" y2="141.6" fill="rgb(0, 0, 0)" stroke="rgb(66, 66, 66)" stroke-width="1px" opacity="0.25"></line><line x1="0" y1="123.89999999999999" x2="250" y2="123.89999999999999" fill="rgb(0, 0, 0)" stroke="rgb(66, 66, 66)" stroke-width="1px" opacity="0.25"></line><line x1="0" y1="106.2" x2="250" y2="106.2" fill="rgb(0, 0, 0)" stroke="rgb(66, 66, 66)" stroke-width="1px" opacity="0.25"></line><line x1="0" y1="88.5" x2="250" y2="88.5" fill="rgb(0, 0, 0)" stroke="rgb(66, 66, 66)" stroke-width="1px" opacity="0.25"></line><line x1="0" y1="70.8" x2="250" y2="70.8" fill="rgb(0, 0, 0)" stroke="rgb(66, 66, 66)" stroke-width="1px" opacity="0.25"></line><line x1="0" y1="53.10000000000001" x2="250" y2="53.10000000000001" fill="rgb(0, 0, 0)" stroke="rgb(66, 66, 66)" stroke-width="1px" opacity="0.25"></line><line x1="0" y1="35.39999999999999" x2="250" y2="35.39999999999999" fill="rgb(0, 0, 0)" stroke="rgb(66, 66, 66)" stroke-width="1px" opacity="0.25"></line><line x1="0" y1="17.699999999999996" x2="250" y2="17.699999999999996" fill="rgb(0, 0, 0)" stroke="rgb(66, 66, 66)" stroke-width="1px" opacity="0.25"></line><line x1="0" y1="0" x2="250" y2="0" fill="rgb(0, 0, 0)" stroke="rgb(66, 66, 66)" stroke-width="1px" opacity="0.25"></line></g></g></g><g><g><line x1="0" y1="0" x2="250" y2="0" fill="rgb(0, 0, 0)" stroke="rgb(153, 153, 153)" stroke-width="1.5px"></line></g></g><g><g><line x1="17.857142857142858" y1="0" x2="17.857142857142858" y2="177" fill="rgb(0, 0, 0)" stroke="rgb(153, 153, 153)" stroke-width="1.5px"></line></g></g><g><g><g><g><g><path stroke="rgb(255, 112, 67)" stroke-width="2px" d="M18.474999999999998,16.509524835205077L19.664285714285715,81.13875308761597L20.489285714285714,141.28950067524812L22.321428571428573,115.16115483055113L22.607142857142858,127.49086195986216L22.92857142857143,156.46971243132643L23.325,111.43619063732196L23.610714285714288,87.82917633365143L24.882142857142856,121.05259159174368L25.164285714285715,93.81611028382326L26.639285714285712,125.4701550189479L27.325,160.18283766109184L27.567857142857143,121.72038521049262L27.667857142857144,106.16359785570604L28.12142857142857,107.6890316526149L28.757142857142856,70.54185977626373L29.607142857142858,85.80264988663505L30.42142857142857,125.75989525371409L30.757142857142856,85.7519088945806L30.97142857142857,82.55695321160651L31.346428571428575,72.2300573199522L31.8,71.01025710628433L32.11785714285714,61.233532854805595L32.18571428571428,46.54281828626937L32.214285714285715,41.78236788688276L32.4,55.38118828470125L32.84642857142857,45.356849878975716L33.32857142857143,37.87061762993813L33.36071428571429,41.000715774236745L33.667857142857144,44.88337542055308L34.18214285714286,46.83221837216299L34.69642857142857,110.0857360574309L35.010714285714286,75.23120358825012L35.78214285714286,51.33689631942419L36.135714285714286,101.1953359534439L36.275,67.37938010511013L36.5,61.00068891226246L36.66428571428571,54.21156243347627L36.753571428571426,48.53599975212859L37.40357142857143,39.59965240769087L37.58571428571428,59.726191460757015L37.824999999999996,57.07571487517871L38.07142857142857,54.69699590684227L38.128571428571426,40.31626324473901L38.52142857142857,38.29982285874317L38.56785714285714,45.55655484851099L39.15714285714286,58.36821408146102L39.47857142857143,38.844128448438234L39.707142857142856,43.179331834746364L40.65714285714286,58.66463994081674L40.839285714285715,53.80496000938834L41.32142857142857,45.98736002904776L42.93571428571428,39.35246627620613L42.94642857142857,29.80216582284259L43.57857142857143,36.147448858943925L43.67857142857143,52.13246931537237L43.68928571428572,36.45414616197377L43.725,26.120487697182888L43.93928571428572,42.434692618311054L44.12142857142857,36.10098734833006L44.20357142857142,41.059792408998206L44.22857142857143,35.42146378524256L44.71071428571428,48.01527827114567L45.35357142857143,51.88996696268741L45.39642857142857,35.52358017761239L46.06071428571429,29.335246216918968L46.121428571428574,38.841147730151405L46.275,53.206861216215856L46.57142857142857,55.0049167297295L46.74285714285714,38.94229004516193L46.792857142857144,35.02951068237058L46.83571428571429,27.613614866453577L47.04642857142857,39.64896891987216L47.18571428571429,40.27397386168892L47.5,38.04118431701334L47.807142857142864,106.65191059020802L47.89642857142857,69.93012034826542L47.99285714285714,46.34767220895926L48.23571428571429,63.77500332537556L48.278571428571425,42.37140199522532L48.39285714285714,42.64301044518208L48.482142857142854,63.39300626710924L48.496428571428574,45.88978638721866L48.72142857142857,46.71567815069058L48.74285714285714,38.369850601351835L49.11785714285714,34.60702878854548L49.47142857142857,35.364712195002284L49.635714285714286,34.66054351329043L49.71785714285714,36.51392610797425L50.31428571428572,70.68718414134706L50.63928571428571,59.97071048480822L50.7,69.79395500182244L50.760714285714286,72.32037300109346L50.871428571428574,75.67702380065609L50.95714285714286,79.53181428039365L51.34285714285714,78.46724854870494L51.38214285714285,53.02049073566828L51.48571428571429,54.89309444140096L51.56428571428572,48.45942732890309L51.635714285714286,53.99725639734184L51.73571428571429,46.044286377467614L51.81428571428572,70.69351350616806L52.010714285714286,47.77703665594693L52.16785714285714,43.56737146622441L52.88214285714286,42.65445201059402L53.07857142857143,38.04203188995015L53.23571428571429,29.019570076352924L53.375,40.56395394034301L53.400000000000006,34.10714410248704L53.56428571428572,30.349647442937545L54.035714285714285,54.72426965716878L54.160714285714285,43.48176171617626L54.403571428571425,63.89625702970575L54.65,57.39680135649532L54.73571428571428,38.82768081389718L55.121428571428574,32.80519454790865L55.246428571428574,24.07271672874517L55.300000000000004,38.78866290834085L55.30714285714286,27.80438391687953L55.38928571428572,49.95915236184645L55.39285714285714,33.37389141710786L55.621428571428574,35.20788402018659L55.864285714285714,42.36473041211197L56.00714285714286,92.67883824726717L56.19285714285714,70.72027163976657L56.232142857142854,59.622760786594306L56.25357142857143,46.0359859690269L56.375,40.55370939391614L56.56428571428571,49.23657850744344L56.732142857142854,35.61269880856762L56.778571428571425,43.8024885527187L56.82142857142857,51.20309313163122L57.60357142857143,36.92091011237718L57.775,37.224905012738795L57.87857142857143,57.27854919904953L58.08571428571429,72.92544907021099L58.91785714285714,65.08017067259532L59.06071428571428,53.32903886351812L59.142857142857146,51.39662331811087L59.37142857142857,66.33214352211652L59.67142857142857,63.738836874988664L59.875,58.416714644524454L59.964285714285715,43.49649903573812L60.207142857142856,56.54189942144286L60.23571428571429,37.80556086624463L60.45357142857143,49.445736519746774L60.517857142857146,38.090580656965244L60.96785714285714,52.53426497621041L60.971428571428575,35.62695898572625L61.24642857142857,50.68997507893574L61.46785714285714,36.61081684179503L61.542857142857144,32.884297790623904L61.74285714285714,31.854535920468088L61.88214285714286,30.040221024937086L61.957142857142856,42.945732614962274L62.00714285714286,54.37063956897734L62.28214285714286,52.84318351677704L62.392857142857146,91.60271011006623L62.48571428571428,58.926426066039745L62.61071428571428,43.742881372045716L62.61785714285714,31.798027822250877L62.76785714285714,23.24085069725676L62.86428571428572,17.767710418354053L63.12857142857142,26.378226251012443L63.25714285714286,44.43013575060746L63.31785714285715,33.873291560227756L63.42142857142857,43.40477493613665L63.875,41.76046496168198L63.94285714285715,40.261799309040455L64.25714285714287,52.76027958542426L64.59642857142858,45.284454738559255L64.77142857142857,40.87077274059647L65.32499999999999,36.651368766428206L65.48571428571428,27.638671306243623L65.63571428571429,46.73170612358993L65.69285714285714,40.17777182845084L65.80357142857143,45.34666309707051L65.89285714285714,31.314397858242305L65.96428571428571,35.46243800205475L66.125,41.475103924279736L66.13928571428572,30.99311542585691L66.41428571428571,36.668637478170396L66.65714285714286,39.55958248690224L66.75357142857142,35.48021458979759L66.79285714285714,39.73012001364418L66.99642857142857,28.227672008186524L67.125,22.288971283525196L67.60714285714285,29.792480094333854L68.38214285714287,68.56828805660032L68.42142857142858,59.33084626169455L68.58571428571429,53.15690775701673L68.61785714285715,47.60217559171006L68.62142857142857,32.66770535502604L69.17857142857142,33.47742321301561L69.96785714285714,26.17627072712578L70.03214285714286,45.37282577611921L70.19642857142857,36.762471779148086L70.25357142857143,39.61588306748885L70.45357142857144,50.53192984049331L71.37142857142857,37.806090238280355L71.43214285714286,42.0828541429682L71.925,38.294868306093434L72.29285714285714,28.616379086683413L72.44285714285714,40.94927963951003L72.47142857142858,28.534367783706028L73.08928571428572,29.42167989873922L73.43928571428572,53.61940793924355L73.71071428571429,47.88924476354613L73.80357142857143,33.12314685812767L74.07142857142857,25.229877865853158L74.23214285714286,37.863986914824395L74.26428571428572,35.61401408248838L74.34642857142858,47.53029792214929L74.70357142857142,41.817355501336465L74.78214285714286,46.33041330080188L74.85,36.20277579786393L75.02142857142857,36.87487574239022L75.10714285714286,59.36393470324664L75.88214285714285,40.69050281169408L76.49642857142858,49.33590168701644L77,51.78740550439736L77.09285714285714,35.653217130763416L77.10000000000001,26.7381292848057L77.18928571428572,20.149277570883406L77.21785714285714,29.64796654253005L78.02499999999999,39.02877992551804L78.22142857142856,63.06526795531082L78.31785714285715,48.4169167155693L78.49642857142858,57.653350029341595L78.54285714285713,41.09784163625731L78.73214285714286,40.37630498175439L78.84285714285714,31.539955371865123L78.96428571428571,37.454877598119076L79.78928571428571,39.97979086551207L79.82142857142857,43.387074519307234L80.13928571428572,54.635444711584334L80.53928571428571,36.95541253984123L80.56428571428572,34.91364097605317L80.66428571428571,38.50658458563191L80.71428571428571,35.99667396426976L81.08571428571429,38.67981632192123L81.38571428571429,30.399184160828547L81.875,32.11631049649711L81.89285714285714,28.14743649809358L81.97857142857143,32.43418349065303L82.52142857142856,30.75377038736058L82.52857142857142,23.812148057611644L82.55,21.574912081637294L82.76785714285714,24.58979712691207L83.01428571428572,28.630678276147247L83.06071428571428,39.061864192250844L83.325,54.900126874725494L83.50357142857143,55.22160704280404L83.57142857142857,48.850564225682426L83.675,46.54860707056571L83.94642857142857,43.476457054839415L84.35714285714285,48.394364809075526L84.39642857142857,45.46231049677343L84.55357142857142,40.58759184005625L84.82142857142857,39.554367770049375L85.075,31.848867507732738L85.10357142857143,36.667720504639654L85.275,26.390232302783808L85.4,26.151596427568705L85.4857142857143,19.79735785654121L85.55357142857142,42.322414713924736L85.57857142857144,30.76305928245641L85.67142857142856,24.030681865860554L85.80357142857142,30.136009119516334L86.35,91.43203719045982L86.72857142857143,74.25842231427589L86.875,56.12579229481554L86.93928571428572,45.46074122161588L87.075,46.67564473296953L87.48928571428571,38.65412341204733L87.56785714285714,40.750874047228415L87.69642857142858,79.62461181114953L87.72142857142858,63.492367086689725L87.83571428571427,66.60859224420135L87.93214285714286,47.41844990218487L88.18214285714286,44.75129724599844L88.34285714285714,35.236078157169366L88.73928571428571,29.064541982192253L88.87857142857143,34.99712518931534L88.91785714285714,28.29715099737825L89.00357142857143,47.42229059842697L89.125,39.74575829460306L89.29642857142856,50.60985497676184L89.35357142857144,62.650712986057094L89.36071428571428,42.95029287464206L89.51785714285715,39.64697572478523L90.17857142857143,46.86898543487114L90.375,42.22771393670395L90.78214285714286,60.99676304952238L90.93571428571428,47.638205529908745L90.94285714285715,33.93764390632415L91.23571428571428,31.31888547953666L91.54285714285714,36.349731287722L92.03571428571429,41.20903877263319L92.33571428571429,42.99978307803305L92.49642857142858,64.60270176088233L92.85000000000001,59.167677951060654L93.02857142857144,113.23142204407391L93.12857142857142,81.81565322644434L93.26428571428572,75.85179193586661L93.37142857142858,68.59187516151997L93.82857142857142,52.914490863513535L94.02499999999999,64.03349451810813L94.15357142857144,54.127393029224244L94.18928571428572,50.76462202847205L94.23214285714286,52.011867894817605L95.46785714285714,54.86190027790619L95.60000000000001,50.47554016674371L95.86428571428571,45.7988123324681L96.0607142857143,37.0380781953793L96.23214285714286,49.91633087230571L96.30714285714285,36.459206440863895L96.33928571428571,35.30292449440114L96.45714285714286,24.721754696640687L96.58571428571429,50.79945281798442L96.64285714285714,40.11070320446252L96.71428571428571,33.49336413947438L96.80714285714285,39.49521848368463L97.02857142857142,29.65708796765219L97.12142857142857,33.18928065168505L97.67142857142858,33.790368391011036L97.69642857142857,35.99182103460662L97.73214285714285,38.708054144201476L98.25,32.05404449335681L98.39642857142857,40.6774839616391L98.50357142857143,48.885737300811584L98.63214285714287,35.02172273204944L98.78928571428573,45.93463363922967L98.93571428571428,58.0047801835378L99.08928571428571,48.49050022438048L99.17142857142858,46.65270013462828L99.35,45.55002008077696L99.55714285714286,54.09241204846617L99.78571428571428,110.25502976814221L99.95,83.71141786088532L101.03571428571428,55.88584839231243L101.48214285714286,40.83631804905933L101.49642857142857,31.816289901701246L101.60357142857143,42.17057394102074L101.65357142857142,53.90554436461244L101.7,47.06964710704873L101.7642857142857,52.41242255133859L101.88214285714285,48.19052135306879L102.10714285714286,119.82151281184127L102.30714285714286,98.65530768710477L102.36785714285715,70.27347968062224L102.55714285714286,48.279163406517874L102.87142857142857,41.65200772164509L103.025,43.10662052165894L103.34285714285714,45.263172312995344L103.38571428571429,52.07950338779721L104.04285714285714,46.96530203267834L104.08928571428572,51.259981219607L104.16071428571429,38.61494948371732L104.18571428571428,36.4047332498007L104.31071428571428,28.040969859548387L104.34285714285714,21.562093219439976L104.45714285714286,30.495655931663983L104.81071428571428,39.06886038517026L104.84642857142858,44.68131623110216L104.93928571428572,42.23801110584879L104.95,29.166006663509293L105.05000000000001,42.421203998105554L105.1892857142857,54.05592239886332L105.51428571428572,48.15115343931801L105.58214285714286,39.47202516905955L105.80357142857143,101.58740740612323L105.84642857142858,85.87404444367395L105.96785714285714,65.40122666620437L106.02857142857142,51.806499246792946L106.23928571428571,47.24632267307577L106.41071428571429,38.33785164095483L106.77857142857142,38.87991001777602L106.85357142857143,33.9032388182828L106.93214285714285,36.05954329096967L107.14285714285714,31.415159197238072L107.2,51.13389551834283L107.28214285714286,70.3283373110057L107.46071428571429,76.54520408582218L107.52857142857142,56.53945821321205L107.56785714285715,43.36202189081786L107.60357142857143,47.25721313449071L107.81785714285715,36.784589838702246L107.92857142857143,31.601697448143227L108.15714285714286,34.06832627162032L108.67142857142858,30.165547750276875L108.91071428571429,35.657728650166135L109.09285714285714,32.51009545181843L109.15357142857144,23.612457271091035L109.20714285714287,29.885074362654624L109.28571428571429,34.3013615023584L109.29285714285713,25.68428780473536L109.33214285714287,38.491372682841195L109.66785714285713,36.74174918099379L109.7,38.63977784844002L109.74285714285715,32.69984649422026L110.075,23.72630789653217L110.49285714285715,39.157384737919294L110.75,48.41603084275157L111.45357142857144,46.965911122838456L111.96071428571429,36.59220283581246L111.97500000000001,29.267071569651524L112.10000000000001,39.76961524647841L112.38214285714287,46.89605306390267L112.42857142857143,43.85523183834159L112.58928571428571,30.277939103004957L112.84285714285714,43.088363461802984L113.19999999999999,52.61541807708179L113.23571428571428,49.85650365874907L113.675,45.61309177532757L114.00357142857143,52.505569645274676L114.19285714285714,60.89538100591479L114.225,49.707716499056694L114.25357142857143,40.045668615254336L114.325,39.74500116915258L114.48928571428571,44.80214478352281L115.35357142857143,52.06049619628555L115.36428571428571,38.72246864062289L115.74642857142857,48.15508118437372L115.77857142857142,44.61064871062424L115.88214285714285,32.706762021784705L115.92857142857142,42.594711011898944L116.40714285714286,43.11522660713936L116.54285714285714,40.731907204517995L116.79285714285714,41.49909400044517L116.87142857142857,43.39469631237647L116.98928571428571,57.45943419367588L117.12142857142857,74.97724301620552L117.425,49.37594580972331L117.51785714285715,49.024767485833976L117.61428571428571,52.8267611165004L117.72142857142858,60.29925666990022L118.13214285714285,51.89715400194015L118.14285714285715,37.9248613171797L118.44285714285714,31.792499627221876L118.55,28.121778775356574L118.91428571428571,25.294398847245198L118.92142857142856,19.365935892819763L118.95357142857142,28.34469946537937L119.13214285714285,27.929421402860434L119.21071428571427,24.244076992106866L119.41785714285714,36.26965273823288L120.18214285714286,50.83090957262722L120.28928571428571,56.24520255021695L120.375,54.98712153013018L120.41071428571429,47.423587644640605L120.63214285714285,55.68511514537812L120.8142857142857,53.47485396027375L121.05357142857143,45.96171237616425L121.225,54.40976936905792L121.86428571428571,48.36346162143476L121.9392857142857,34.10010002217725L122,34.55088308947822L122.13214285714285,28.902820361499458L122.35714285714286,40.775230400493406L122.77857142857142,75.15793824029603L123,50.435427243494004L123.66785714285714,46.20427379726829L123.95714285714287,53.6490973350016L123.96071428571429,36.57905840100096L124.01071428571429,36.271243009350584L124.20714285714287,35.63954580561033L124.37142857142858,24.923727483366232L124.48214285714286,63.83972129470724L124.5,46.725229178191526L124.53214285714286,47.434337506914915L124.84285714285714,39.518473539305205L125.59285714285714,28.472986079149532L125.63214285714285,32.18275763381784L125.66071428571429,36.8680545802907L125.98571428571428,45.20163274817441L126.4,31.368979648904645L126.47500000000001,41.902187789342776L127.02857142857144,54.1006093630588L127.08928571428571,58.24154088150716L127.16785714285714,54.08567687265429L127.21428571428572,35.84980612359257L127.26785714285715,51.953883674155556L127.31785714285715,51.75724352480581L128.0392857142857,43.16819586586006L128.26785714285717,36.8604161376801L128.4107142857143,48.87864968260805L128.74285714285713,51.95362527831484L128.775,46.285192256832666L129.00714285714284,33.92722720956834L129.03214285714284,36.073936325740995L129.19285714285715,32.17649011087428L129.26071428571427,25.46475987951288L129.48214285714286,26.57902423337177L129.5857142857143,28.073217840804315L129.64285714285714,27.194048053115388L130.1607142857143,27.972582337728618L130.20714285714286,29.660260511035613L130.25357142857143,40.00029293748075L130.25714285714284,28.106575762488458L130.6357142857143,30.539814158664928L130.96785714285713,29.625891620198956L131.30357142857144,27.31990476215845L131.81428571428572,43.15434285729508L132.17142857142858,50.81420571437703L132.18214285714285,37.976356319251224L132.27142857142857,26.609013791550716L132.98214285714286,35.795293870633564L133.05357142857144,42.71717632238013L133.18928571428572,48.22497633053747L133.275,55.72066198972873L133.33928571428572,50.990797193837224L133.40357142857144,44.86546371181015L133.45357142857142,40.7960782270861L133.63214285714287,35.58894638937666L133.71785714285713,59.991997677376L134.11071428571427,55.12808966111308L134.18214285714285,39.679194924597546L134.44285714285715,41.365916954758504L134.54285714285714,31.014888097659796L134.58928571428572,45.37133285859589L134.9892857142857,34.71093250324347L135.42142857142858,36.5441595019461L135.47500000000002,39.48489570116766L135.56071428571428,42.003905360153716L135.6642857142857,49.14124924148286L135.96785714285713,43.3615495448897L136.06428571428572,31.385893716191642L136.625,39.36957220627749L137.17857142857142,37.498543323766484L137.84642857142856,45.40255609191616L137.8892857142857,47.3180352176497L138.11428571428573,32.9587538161367L138.13214285714287,29.668360478158576L138.23214285714286,42.09740008572328L138.31785714285712,42.67952158463709L138.53571428571428,49.88530605625101L138.6642857142857,37.77401474214904L138.73214285714286,29.68988152351209L139.34642857142856,25.14639849906818L139.725,22.656565657058117L139.9607142857143,29.30716106415676L140.0142857142857,48.02829663849405L140.3,45.633397094424545L140.42142857142855,39.26893379864692L141.14285714285717,44.801360279188145L141.2785714285714,53.6432161675129L141.5357142857143,39.67240052082023L141.60357142857143,35.56996299803903L141.63571428571427,33.612113882807776L141.70357142857142,32.294691249606544L141.73214285714286,36.93521474976393L141.96071428571426,33.45535711157711L142.34285714285713,41.680795214211884L142.45,33.47225500450369L142.77142857142857,46.8457530027022L142.80714285714285,44.6557954246682L142.89285714285717,63.72772500870717L143.09285714285713,52.11343500522428L143.47857142857143,36.207644858115046L143.5357142857143,41.54281885822841L143.77499999999998,50.313274928218284L144.14642857142857,51.21315194911849L144.3,47.91951225345546L144.34285714285713,48.24768694191703L144.57500000000002,55.32566034874396L144.7607142857143,59.957796209246375L144.91071428571428,39.51467772554782L145.2214285714286,42.01588725056306L145.30714285714285,50.13113235033784L145.38571428571427,37.939317686569886L145.94285714285715,32.281831295535675L146.0285714285714,31.60055845993859L146.17142857142855,58.23190931424442L146.2392857142857,48.13913319596852L146.3607142857143,40.45415400449519L146.99285714285713,49.194092402697116L147.15714285714284,45.90714634005576L147.68571428571428,32.71411815071315L147.86428571428573,53.1939488591779L148,67.81215253816299L148.30357142857142,63.76809152289778L148.60714285714286,56.679485284832424L148.74285714285716,43.54918298242289L148.82857142857142,53.33107375429749L149.07500000000002,62.44264425257849L149.10357142857143,52.32759378787521L149.24285714285716,39.11841116530326L149.39285714285714,42.87024669918195L149.54642857142858,48.802948019509174L149.6357142857143,51.17064147772111L149.85000000000002,50.101584886632665L150.15357142857144,34.60184099057334L150.225,40.575113774031514L150.48928571428573,38.221868264418916L150.6357142857143,51.15917959146384L150.68928571428572,38.65193431737832L150.77142857142857,38.90876059042698L151.34285714285713,70.35645635425618L151.4142857142857,61.6130738125537L151.60714285714286,49.114811533625975L151.69285714285712,44.334520582284966L151.75714285714287,35.624381499761604L152.16071428571428,25.339428899856962L152.525,38.284457339914184L152.68214285714285,35.575833979143816L153.16071428571428,40.99519168631442L153.19285714285712,43.99631501178864L153.37857142857143,32.57066400707318L153.4035714285714,30.922871817329856L153.92142857142858,33.41917871539791L154.05357142857142,44.97310722923874L154.0892857142857,36.0847652945745L154.175,53.93565917674469L154.29999999999998,62.8053955060468L154.35,42.39259713761247L154.81785714285715,57.720358282567474L154.93214285714285,65.99188920782174L155.21785714285713,50.11347779227116L155.2357142857143,38.5146658208705L155.41071428571428,29.296490032073066L155.73928571428573,46.18109401924385L156.40714285714284,43.25919191935881L156.58928571428572,53.70225985864655L156.68571428571428,63.994912848781674L157.46785714285713,64.70448363700339L157.55357142857144,61.21044702790515L157.65714285714284,41.29971659564935L157.67857142857142,35.66044257945991L157.7107142857143,40.79546554767595L157.875,53.08047932860557L157.93571428571428,53.19244794872584L158.02142857142857,49.47386876923551L158.3464285714286,39.24616029474443L158.51785714285717,45.62085453622166L158.7107142857143,63.14884860063924L158.95357142857142,44.89470988303979L159.10714285714286,53.24288916224575L159.18214285714285,41.831250909456834L159.51785714285717,38.9532803503616L159.55357142857144,37.24876821021697L159.6535714285714,34.542090877302066L160.03214285714284,40.124454526381236L160.20000000000002,36.19097868750841L160.35357142857143,25.820987212505056L160.40714285714287,25.123971272815528L160.8464285714286,34.47358276368933L160.95714285714286,42.13704574219797L161.01785714285714,34.3714894423891L161.35714285714286,24.58769366543344L161.84642857142856,42.478922937541334L161.975,34.93241600861854L162.14642857142857,38.517849605171136L162.94642857142858,59.412822067790174L162.97142857142856,47.33839631684598L163.01428571428573,44.943478639716965L163.19642857142858,44.524487183830175L163.4857142857143,32.654661497309824L163.72142857142856,36.3249664296359L163.92857142857142,27.465864535515912L164.01785714285714,39.560318721309535L164.35,32.8349635228248L164.60357142857143,52.689539793382366L164.78571428571428,56.53532387602942L164.85,51.479594325617654L165.375,57.650156595370575L165.47857142857143,50.44207913300359L165.7107142857143,34.23004747980215L165.86785714285716,45.822079200771924L166.01428571428573,57.117875801713154L166.16071428571428,48.701406706613845L166.2,46.443668272015174L166.49285714285713,53.41361004524036L166.5392857142857,50.004949122847336L166.9142857142857,45.7205694737084L167,56.03554168422504L167.03571428571428,51.42060576248815L167.1857142857143,38.33920418014914L167.35714285714286,44.29812631668324L167.37857142857143,40.455675790009934L167.39642857142857,33.440327949591904L167.6642857142857,40.693849259989506L168.47857142857143,40.2499603665406L168.99642857142857,36.353512596877486L169.18214285714288,32.636143271017104L169.25,50.822943052453994L169.34285714285716,61.13900307756615L169.62142857142857,50.560201846539705L170.00357142857143,51.57612110792382L171.27142857142857,52.66559157100429L171.64285714285714,42.38430805295413L171.68214285714288,43.229665075913104L172.05,38.080073371719735L172.05357142857142,26.954444023031844L172.10714285714286,26.766532986084737L172.15357142857144,24.38112364907273L172.225,22.11669030272488L172.27142857142857,40.03241418163492L172.31428571428572,45.19413481757469L173.2,50.197280890544825L173.42857142857144,55.548274852686255L173.55,57.11482816356489L173.69285714285715,61.03129689813893L173.84285714285713,59.69957813888336L174.15,40.89782675637689L174.44642857142856,39.7936190909355L174.55357142857142,50.33851842721757L174.57857142857142,45.92071105633054L174.9607142857143,46.95162663379833L175.2392857142857,68.28617646856026L175.74285714285713,44.936505881136135L175.95357142857142,35.7863361898145L176.05,37.111162182638694L176.36785714285713,33.560039707044176L176.42857142857144,30.27357523535932L176.7607142857143,31.978334848246828L176.85357142857143,23.348255784436386L177.07142857142858,37.08975347066182L177.23214285714286,35.1513027855221L177.4,29.912733048266393L177.65357142857144,23.0297311546434L177.81785714285715,19.061417887121976L177.94642857142856,20.47187709457787L178.21428571428572,16.247926256746723L178.57857142857142,15.936906078755076L178.96428571428572,39.819961772253045L179.06785714285715,47.00055430944557L179.10714285714286,39.17184870871422L179.16785714285714,57.62870922522853L179.2892857142857,51.794827937480875L179.31785714285715,48.635296762488515L179.625,34.53682772302046L179.71785714285716,28.83468248342163L179.7464285714286,30.467238830873303L179.7857142857143,29.171023659852093L179.98571428571427,22.854706576282346L180.07500000000002,17.819223945769412L181.0892857142857,14.797934367461659L181.35357142857143,28.277960620476993L181.51071428571427,43.72917637228619L181.6285714285714,52.999905823371726L181.78214285714287,45.67674349402302L181.8785714285714,57.69768090110133L182.375,59.54020854066081L182.39642857142857,42.740835956915994L182.94285714285712,45.04370157414961L183.00357142857143,55.48346162808351L183.11785714285713,56.069028021771985L183.26785714285714,43.17742663728193L183.3464285714286,31.84654832611914L183.49285714285716,23.072728995671476L183.5142857142857,18.925311718691958L183.53214285714287,19.797478593715184L184.06785714285715,18.483743857889266L184.14642857142857,26.308274185827297L184.46428571428572,31.065804911887014L184.56785714285715,36.197882947132186L184.88214285714287,50.32192976827931L184.95714285714286,37.240563241826955L185.00714285714287,28.525265235135254L185.05714285714288,32.6040799809249L185.3857142857143,35.269230937773685L185.9607142857143,36.70490073063297L186.42142857142858,32.145563524317275L186.53571428571428,29.630707338223164L186.7892857142857,28.58480678574641L187.0142857142857,30.019610301916604L187.16785714285714,43.44703435497808L187.30357142857142,30.8289981691392L187.31071428571428,23.85563529064368L187.35357142857143,30.9531788306362L187.70000000000002,28.114352386272337L188.35357142857143,30.745411431763408L188.5,37.041387249683034L188.6357142857143,47.146432349809814L188.81785714285715,50.11111762277653L189.1,47.99706269280654L189.29642857142855,53.719837615683915L189.425,36.196702569410355L189.52142857142857,31.797360003560257L189.53571428571428,26.38893430291741L189.7892857142857,35.23256058175044L189.95714285714286,46.061136349050265L190.00714285714284,56.23988180943016L190.04285714285714,53.14312908565809L190.1107142857143,53.12587745139486L190.15714285714284,54.80268908802441L190.16785714285714,38.432548653009974L190.47857142857143,38.77712919180599L190.58928571428572,40.017355278755474L190.65714285714284,53.58621088209703L190.68571428571428,47.38058873628947L190.7357142857143,49.49924391560181L190.7892857142857,40.656910250728274L190.94285714285715,57.447129607468234L190.99642857142857,58.521023828934055L191.17142857142858,60.03421429736043L191.44285714285715,64.89097092216625L191.53214285714284,57.16980531697163L191.60357142857143,48.17868319018298L192.18214285714285,35.97628958451995L192.24285714285713,39.144173750711964L192.4035714285714,30.97553327386469L192.65714285714287,43.0741065658813L193.1,41.56206393952879L193.53214285714284,38.664834623482896L193.7107142857143,28.56009076432411L193.775,38.376054458594474L194.5,36.902432675156675L194.59642857142856,29.474891109000254L194.63214285714287,25.869361081415775L194.64999999999998,24.628071326583832L195.20714285714286,37.85764279595029L195.51428571428573,56.689303548663915L195.85714285714286,46.16175847197178L196.00714285714284,44.17384507341745L196.38214285714287,55.296611838972346L196.59285714285716,40.66600050182091L196.825,39.50370862140505L196.88571428571427,51.461435934561784L196.95357142857142,52.11686156073706L197.06428571428572,57.227647463786L197.1,48.914500343505956L197.54285714285714,39.53576840434575L197.75714285714287,42.513319421513714L198.2357142857143,32.80931597908008L198.5035714285714,23.650389587448057L198.67499999999998,37.76461138918758L198.78214285714284,33.95018625734069L199.025,46.44450376612317L199.5857142857143,54.6291022596739L199.625,38.98783693441761L199.66071428571428,38.7830889672912L199.7892857142857,27.37625338037472L200.31785714285712,21.78072930117405L200.81785714285712,34.30843758070442L201.09642857142856,51.029062548422665L201.2642857142857,37.26153051977624L201.3,37.900712608740754L201.50357142857143,42.13962756524447L201.75714285714287,40.652613941490436L201.85,31.889254658839548L201.89285714285714,27.611707599991245L202.08214285714286,30.443824559994717L202.15357142857144,31.578984154942162L202.85357142857143,36.50579049296531L202.95,36.377014066286975L203.42857142857144,41.63914421125657L203.56428571428572,29.373086526753944L203.65357142857144,26.047589591833614L204.1,42.39095375510017L204.32500000000002,56.417122409310096L204.43214285714288,53.24947344558605L205.12857142857143,38.91256071285943L205.18214285714288,38.130986085918806L205.21428571428572,42.277791651551276L205.29642857142858,48.44747499093077L205.39642857142857,57.70331683049595L205.40714285714284,40.811330938141325L205.50357142857143,34.266616380267614L205.5142857142857,26.74793736234025L205.85714285714286,20.01356241740415L206.09285714285713,31.265737450442483L206.19285714285715,43.681042470265496L207.04642857142858,52.97102548215931L207.47857142857143,54.86341528929558L207.7857142857143,50.47644917357736L207.9714285714286,47.8442695041464L208.05,48.480465862644095L208.44285714285715,57.09211153907084L208.49285714285713,57.125167275005005L208.86428571428573,41.291419688733455L208.96428571428572,42.134045573005714L209.22857142857143,38.901527163139356L209.24285714285713,31.887834046907066L209.37142857142857,40.37270042814422L209.84285714285713,46.10389182915217L209.96785714285716,41.51558925764756L210.06071428571428,34.011728071190085L210.44285714285715,37.965436842714055L210.675,49.3189445958628L210.68571428571428,35.240516647654395L210.7392857142857,39.31390447101451L211.0892857142857,48.62843761424933L211.25,40.46979912128398L211.5,57.16370876964538L212.0892857142857,61.06062526178724L212.13214285714284,53.90361707113484L212.19285714285715,48.5805650864309L212.34642857142856,44.44592358310856L212.54285714285714,33.638663715294804L212.725,43.26399822917688L213.175,30.147761205572557L213.3357142857143,22.05345672334354L213.525,18.5830739925022L213.5607142857143,28.95050277440757L213.6357142857143,27.908586952730495L213.85357142857143,22.941788211677352L214.02857142857144,33.16427292700641L214.1535714285714,47.88868519175074L214.25,46.291611115050436L214.30357142857142,43.49256666903027L214.73928571428573,58.76879277485566L214.86785714285713,39.44871452721808L215.07142857142858,31.15753262746366L215.22857142857143,36.694793853821956L215.31428571428572,35.893676312293174L215.49285714285716,46.60677444948527L215.63214285714287,45.52246466969116L215.87142857142857,53.78618822564284L216.10357142857143,52.31346269124506L216.13214285714287,40.68735512451268L216.19285714285712,36.166952825684156L216.21428571428572,32.070863565527695L216.57857142857142,47.84571813931661L216.59285714285716,36.01957226054308L216.62857142857143,39.92400260437273L216.8357142857143,34.33586813488926L217.16428571428574,47.363920880933556L217.3464285714286,42.29515252856013L217.6392857142857,44.776291517136066L217.70000000000002,51.787374910281635L218.00357142857143,55.99402494616899L218.03571428571428,48.45774635442013L218.53571428571428,52.15544781265209L218.87142857142857,61.73726868759123L218.91071428571428,45.21886411294537L219.00714285714284,44.68971846776723L219.07857142857142,37.00502092441033L219.34285714285716,43.443012554646195L219.42142857142858,47.30580753278772L219.70000000000002,63.75777803529763L220.04642857142855,50.959821889537956L220.09285714285716,38.5881732216134L220.30357142857144,38.87050393296805L220.50714285714284,31.393835099038633L220.58214285714286,24.180903781591148L220.7892857142857,32.55925117520468L221.1607142857143,37.128954875044684L221.54285714285714,44.093297046120554L221.8,49.536778227672336L222.01071428571427,51.03235183894715L222.28214285714284,34.15941110336828L222.31785714285715,24.88524666202098L222.44642857142858,47.21594799721259L222.4857142857143,48.176865731921296L222.625,49.934445415715295L222.76428571428573,45.67826724942917L222.80357142857144,32.654229492723914L223.06428571428572,30.227716655595287L223.09285714285716,30.822739412302493L223.7357142857143,41.7782788524596L223.85,39.48257588081171L223.93571428571428,37.56634552848701L223.99642857142857,36.53701052998285L224.30714285714285,35.79900631798969L224.36071428571427,39.037803790793824L224.69285714285715,41.5307778994763L224.8,44.01298129046703L224.86071428571427,38.52714471178021L225.11071428571427,33.81728679777127L225.4607142857143,47.05277207866277L225.70714285714286,54.99406324719765L225.75357142857143,46.19828889558421L225.84642857142856,51.42021883539739L225.92499999999998,36.51101446285954L226.0107142857143,38.69799715427823L226.31071428571428,48.140398292566935L226.70000000000002,41.91259880952453L226.77142857142857,56.74211459821473L227.025,44.13823656654601L227.1142857142857,40.89920993797449L227.24285714285713,42.477594419815944L227.25714285714284,32.82203298978018L227.68214285714285,23.799619793868118L227.83928571428572,47.28842236460213L227.87142857142857,38.330952422667515L227.89999999999998,37.10705563817083L228.075,53.672319886808744L228.36071428571427,48.71720845552275L228.99285714285713,41.127889985423025L229.2142857142857,44.07593399125382L229.5,56.382593676002294L229.6857142857143,59.572972045445134L229.86428571428573,58.82458322726707L229.89285714285714,52.85314993636025L230.05,60.315089961816156L230.2892857142857,47.269508068886566L230.31071428571428,39.55463949465225L230.3357142857143,35.330446826674155L230.45357142857142,49.80146809600449L230.54642857142858,42.21719056951677L230.95,49.88841441983507L231.15357142857144,46.75344334916667L231.25357142857143,45.82875333371875L231.78928571428574,50.97666325999688L231.82500000000002,47.51370754584186L231.9,34.4485031188137L232.04642857142858,35.37890984980386L232.125,33.366903009491686" style="fill: none;" fill="none"></path></g></g></g></g><g opacity="0.2"><g><g><g><path stroke="rgb(255, 112, 67)" stroke-width="2px" d="M18.474999999999998,16.509524835205077L19.664285714285715,119.91629003906249L20.489285714285714,199.034218359375L22.321428571428573,84.43422011718751L22.607142857142858,143.58852758789064L22.92857142857143,196.55789501953126L23.325,47.037533935546875L23.610714285714288,53.409922851562506L24.882142857142856,170.05067578125002L25.164285714285715,53.37310979003907L26.639285714285712,172.664122265625L27.325,212.06295673828126L27.567857142857143,64.15229311523437L27.667857142857144,82.85889418945312L28.12142857142857,109.97538925781251L28.757142857142856,14.847301025390626L29.607142857142858,108.68737719726563L30.42142857142857,185.6856181640625L30.757142857142856,25.746024169921878L30.97142857142857,77.76481171875L31.346428571428575,56.74027983398437L31.8,69.18059692382813L32.11785714285714,46.56863950195312L32.18571428571428,24.506920458984382L32.214285714285715,34.64172612304687L32.4,75.77936088867187L32.84642857142857,30.320367919921868L33.32857142857143,26.64128074951172L33.36071428571429,45.695860107421865L33.667857142857144,50.707362744140624L34.18214285714286,49.75548215332031L34.69642857142857,204.96599999999998L35.010714285714286,22.94940904541016L35.78214285714286,15.495437127685541L36.135714285714286,175.98299326171875L36.275,16.655447204589837L36.5,51.43265222167968L36.66428571428571,44.02787277832031L36.753571428571426,40.02265576171875L37.40357142857143,26.195131420898434L37.58571428571428,89.916L37.824999999999996,53.10000000000001L38.07142857142857,51.128917456054694L38.128571428571426,18.745164257812498L38.52142857142857,35.275162280273435L38.56785714285714,56.44165283203125L39.15714285714286,77.5857029296875L39.47857142857143,9.558000000000009L39.707142857142856,49.682136914062504L40.65714285714286,81.89260209960936L40.839285714285715,46.51544011230468L41.32142857142857,34.260960058593746L42.93571428571428,29.400125646972658L42.94642857142857,15.476715142822258L43.57857142857143,45.66537341308593L43.67857142857143,76.11000000000001L43.68928571428572,12.936661431884769L43.725,10.62000000000001L43.93928571428572,66.906L44.12142857142857,26.600429443359374L44.20357142857142,48.498000000000005L44.22857142857143,26.963970849609378L44.71071428571428,66.906L45.35357142857143,57.70199999999999L45.39642857142857,10.974000000000009L46.06071428571429,20.05274527587891L46.121428571428574,53.10000000000001L46.275,74.7554314453125L46.57142857142857,57.70199999999999L46.74285714285714,14.848350018310539L46.792857142857144,29.160341638183585L46.83571428571429,16.489771142578128L47.04642857142857,57.70199999999999L47.18571428571429,41.21148127441407L47.5,34.69199999999999L47.807142857142864,209.56799999999998L47.89642857142857,14.84743498535156L47.99285714285714,10.974000000000009L48.23571428571429,89.916L48.278571428571425,10.266000000000009L48.39285714285714,43.05042312011719L48.482142857142854,94.518L48.496428571428574,19.634956567382815L48.72142857142857,47.95451579589844L48.74285714285714,25.851109277343745L49.11785714285714,28.962796069335933L49.47142857142857,36.50123730468751L49.635714285714286,33.60429049072266L49.71785714285714,39.294L50.31428571428572,121.94707119140625L50.63928571428571,43.896L50.7,84.52882177734375L50.760714285714286,76.11000000000001L50.871428571428574,80.71199999999999L50.95714285714286,85.314L51.34285714285714,76.87039995117188L51.38214285714285,14.850354016113288L51.48571428571429,57.70199999999999L51.56428571428572,38.80892666015625L51.635714285714286,62.303999999999995L51.73571428571429,34.114831347656256L51.81428571428572,107.66735419921875L52.010714285714286,13.402321380615225L52.16785714285714,37.25287368164063L52.88214285714286,41.28507282714845L53.07857142857143,31.12340170898437L53.23571428571429,15.485877355957035L53.375,57.88052973632813L53.400000000000006,24.421929345703127L53.56428571428572,24.713402453613284L54.035714285714285,91.28620297851563L54.160714285714285,26.617999804687493L54.403571428571425,94.518L54.65,47.647617846679694L54.73571428571428,10.974000000000009L55.121428571428574,23.771465148925788L55.246428571428574,10.974000000000009L55.300000000000004,60.86258217773438L55.30714285714286,11.327965429687499L55.38928571428572,83.19130502929687L55.39285714285714,8.496000000000008L55.621428571428574,37.95887292480469L55.864285714285714,53.10000000000001L56.00714285714286,168.15L56.19285714285714,37.782421728515615L56.232142857142854,42.97649450683594L56.25357142857143,25.655823742675775L56.375,32.33029453125L56.56428571428571,62.260882177734366L56.732142857142854,15.176879260253912L56.778571428571425,56.08717316894531L56.82142857142857,62.303999999999995L57.60357142857143,15.497635583496104L57.775,37.68089736328126L57.87857142857143,87.35901547851563L58.08571428571429,96.39579887695314L58.91785714285714,53.31225307617188L59.06071428571428,35.702341149902345L59.142857142857146,48.498000000000005L59.37142857142857,88.73542382812501L59.67142857142857,59.84887690429689L59.875,50.43353129882812L59.964285714285715,21.116175622558604L60.207142857142856,76.11000000000001L60.23571428571429,9.701053033447259L60.45357142857143,66.906L60.517857142857146,21.05784686279296L60.96785714285714,74.19979145507813L60.971428571428575,10.266000000000009L61.24642857142857,73.28449921875L61.46785714285714,15.492079486083986L61.542857142857144,27.294519213867193L61.74285714285714,30.309893115234384L61.88214285714286,27.318748681640628L61.957142857142856,62.303999999999995L62.00714285714286,71.50800000000001L62.28214285714286,50.551999438476564L62.392857142857146,149.742L62.48571428571428,9.91200000000001L62.61071428571428,20.967564331054678L62.61785714285714,13.880747497558584L62.76785714285714,10.405085009765621L62.86428571428572,9.558000000000009L63.12857142857142,39.294L63.25714285714286,71.50800000000001L63.31785714285715,18.038025274658203L63.42142857142857,57.70199999999999L63.875,39.294L63.94285714285715,38.013800830078125L64.25714285714287,71.50800000000001L64.59642857142858,34.07071746826171L64.77142857142857,34.25024974365235L65.32499999999999,30.322262805175775L65.48571428571428,14.119625115966802L65.63571428571429,75.37125834960938L65.69285714285714,30.34687038574218L65.80357142857143,53.10000000000001L65.89285714285714,10.266000000000009L65.96428571428571,41.68449821777344L66.125,50.49410280761718L66.13928571428572,15.270132678222659L66.41428571428571,45.18192055664062L66.65714285714286,43.896L66.75357142857142,29.361162744140614L66.79285714285714,46.104978149414066L66.99642857142857,10.974000000000009L67.125,13.380920196533197L67.60714285714285,41.04774331054686L68.38214285714287,126.732L68.42142857142858,45.474683569335944L68.58571428571429,43.896L68.61785714285715,39.27007734375001L68.62142857142857,10.266000000000009L69.17857142857142,34.69199999999999L69.96785714285714,15.224541998291013L70.03214285714286,74.16765834960937L70.19642857142857,23.846940783691412L70.25357142857143,43.896L70.45357142857144,66.906L71.37142857142857,18.717330834960936L71.43214285714286,48.498000000000005L71.925,32.612889550781254L72.29285714285714,14.098645257568355L72.44285714285714,59.448630468750004L72.47142857142858,9.91200000000001L73.08928571428572,30.752648071289066L73.43928571428572,89.916L73.71071428571429,39.294L73.80357142857143,10.974000000000009L74.07142857142857,13.38997437744141L74.23214285714286,56.815150488281255L74.26428571428572,32.23905483398438L74.34642857142858,65.40472368164063L74.70357142857142,33.247941870117195L74.78214285714286,53.10000000000001L74.85,21.011319543457038L75.02142857142857,37.88302565917969L75.10714285714286,93.09752314453124L75.88214285714285,12.680354974365233L76.49642857142858,62.303999999999995L77,55.46466123046876L77.09285714285714,11.451934570312508L77.10000000000001,13.365497515869144L77.18928571428572,10.266000000000009L77.21785714285714,43.896L78.02499999999999,53.10000000000001L78.22142857142856,99.12L78.31785714285715,26.44438985595702L78.49642857142858,71.50800000000001L78.54285714285713,16.264579046630864L78.73214285714286,39.294L78.84285714285714,18.28543095703124L78.96428571428571,46.3272609375L79.78928571428571,43.76716076660157L79.82142857142857,48.498000000000005L80.13928571428572,71.50800000000001L80.53928571428571,10.435364282226553L80.56428571428572,31.8509836303711L80.66428571428571,43.896L80.71428571428571,32.231808032226574L81.08571428571429,42.704529858398445L81.38571428571429,17.978235919189448L81.875,34.69199999999999L81.89285714285714,22.194125500488287L81.97857142857143,38.86430397949219L82.52142857142856,28.23315073242187L82.52857142857142,13.399714562988276L82.55,18.219058117675775L82.76785714285714,29.112124694824228L83.01428571428572,34.69199999999999L83.06071428571428,54.708643066406246L83.325,78.65752089843751L83.50357142857143,55.70382729492188L83.57142857142857,39.294L83.675,43.09567133789063L83.94642857142857,38.86823203124999L84.35714285714285,55.771226440429686L84.39642857142857,41.06422902832032L84.55357142857142,33.27551385498048L84.82142857142857,38.00453166503906L85.075,20.29061711425781L85.10357142857143,43.896L85.275,10.974000000000009L85.4,25.793642614746087L85.4857142857143,10.266000000000009L85.55357142857142,76.11000000000001L85.57857142857144,13.42402613525391L85.67142857142856,13.932115740966786L85.80357142857142,39.294L86.35,183.376079296875L86.72857142857143,48.498000000000005L86.875,28.926847265625007L86.93928571428572,29.463164611816403L87.075,48.498000000000005L87.48928571428571,26.621841430664062L87.56785714285714,43.896L87.69642857142858,137.93521845703125L87.72142857142858,39.294L87.83571428571427,71.28292998046875L87.93214285714286,18.633236389160153L88.18214285714286,40.75056826171874L88.34285714285714,20.96324952392579L88.73928571428571,19.807237719726555L88.87857142857143,43.896L88.91785714285714,18.24718970947266L89.00357142857143,76.11000000000001L89.125,28.23095983886719L89.29642857142856,66.906L89.35357142857144,80.71199999999999L89.36071428571428,13.39966270751954L89.51785714285715,34.69199999999999L90.17857142857143,57.70199999999999L90.375,35.26580668945312L90.78214285714286,89.15033671875001L90.93571428571428,27.60036925048828L90.94285714285715,13.386801470947267L91.23571428571428,27.390747839355473L91.54285714285714,43.896L92.03571428571429,48.498000000000005L92.33571428571429,45.68589953613282L92.49642857142858,97.00707978515625L92.85000000000001,51.01514223632813L93.02857142857144,194.32703818359374L93.12857142857142,34.69199999999999L93.26428571428572,66.906L93.37142857142858,57.70199999999999L93.82857142857142,29.398414416503904L94.02499999999999,80.71199999999999L94.15357142857144,39.26824079589844L94.18928571428572,45.720465527343755L94.23214285714286,53.88273669433594L95.46785714285714,59.136948852539064L95.60000000000001,43.896L95.86428571428571,38.78372058105468L96.0607142857143,23.896976989746086L96.23214285714286,69.23370988769533L96.30714285714285,16.27351979370118L96.33928571428571,33.568501574707035L96.45714285714286,8.850000000000009L96.58571428571429,89.916L96.64285714285714,24.077578784179693L96.71428571428571,23.567355541992185L96.80714285714285,48.498000000000005L97.02857142857142,14.899892193603513L97.12142857142857,38.48756967773438L97.67142857142858,34.69199999999999L97.69642857142857,39.294L97.73214285714285,42.78240380859375L98.25,22.073030017089835L98.39642857142857,53.6126431640625L98.50357142857143,61.19811730957031L98.63214285714287,14.225700878906258L98.78928571428573,62.303999999999995L98.93571428571428,76.11000000000001L99.08928571428571,34.21908028564453L99.17142857142858,43.896L99.35,43.896L99.55714285714286,66.906L99.78571428571428,194.49895634765628L99.95,43.896L101.03571428571428,14.147494189453132L101.48214285714286,18.26202253417969L101.49642857142857,18.286247680664054L101.60357142857143,57.70199999999999L101.65357142857142,71.50800000000001L101.7,36.81580122070313L101.7642857142857,60.42658571777344L101.88214285714285,41.85766955566406L102.10714285714286,227.268L102.30714285714286,66.906L102.36785714285715,27.70073767089844L102.55714285714286,15.287688995361322L102.87142857142857,31.71127419433593L103.025,45.28853972167969L103.34285714285714,48.498000000000005L103.38571428571429,62.303999999999995L104.04285714285714,39.294L104.08928571428572,57.70199999999999L104.16071428571429,19.647401879882818L104.18571428571428,33.08940889892579L104.31071428571428,15.495324774169925L104.34285714285714,11.843778259277338L104.45714285714286,43.896L104.81071428571428,51.9286670654297L104.84642857142858,53.10000000000001L104.93928571428572,38.57305341796875L104.95,9.558000000000009L105.05000000000001,62.303999999999995L105.1892857142857,71.50800000000001L105.51428571428572,39.294L105.58214285714286,26.453332763671874L105.80357142857143,194.76048076171875L105.84642857142858,62.303999999999995L105.96785714285714,34.69199999999999L106.02857142857142,31.414408117675773L106.23928571428571,40.40605781250001L106.41071428571429,24.975145092773435L106.77857142857142,39.69299758300782L106.85357142857143,26.438232019042964L106.93214285714285,39.294L107.14285714285714,24.44858305664062L107.2,80.71199999999999L107.28214285714286,99.12L107.46071428571429,85.87050424804687L107.52857142857142,26.530839404296874L107.56785714285715,23.595867407226557L107.60357142857143,53.10000000000001L107.81785714285715,21.07565489501952L107.92857142857143,23.82735886230468L108.15714285714286,37.768269506835935L108.67142857142858,24.31137996826172L108.91071428571429,43.896L109.09285714285714,27.78864565429687L109.15357142857144,10.266000000000009L109.20714285714287,39.294L109.28571428571429,40.92579221191406L109.29285714285713,12.758677258300787L109.33214285714287,57.70199999999999L109.66785714285713,34.11731392822265L109.7,41.48682084960937L109.74285714285715,23.789949462890625L110.075,10.266000000000009L110.49285714285715,62.303999999999995L110.75,62.303999999999995L111.45357142857144,44.79073154296874L111.96071428571429,21.03164040527344L111.97500000000001,18.27937467041016L112.10000000000001,55.52343076171874L112.38214285714287,57.585709790039054L112.42857142857143,39.294L112.58928571428571,9.91200000000001L112.84285714285714,62.303999999999995L113.19999999999999,66.906L113.23571428571428,45.71813203125L113.675,39.247973950195316L114.00357142857143,62.844286450195305L114.19285714285714,73.480098046875L114.225,32.926219738769525L114.25357142857143,25.552596789550787L114.325,39.294L114.48928571428571,52.38786020507813L115.35357142857143,62.94802331542968L115.36428571428571,18.715427307128905L115.74642857142857,62.303999999999995L115.77857142857142,39.294L115.88214285714285,14.850931988525398L115.92857142857142,57.4266344970703L116.40714285714286,43.896L116.54285714285714,37.156928100585944L116.79285714285714,42.64987419433594L116.87142857142857,46.23809978027343L116.98928571428571,78.556541015625L117.12142857142857,101.25395624999999L117.425,10.974000000000009L117.51785714285715,48.498000000000005L117.61428571428571,58.529751562499996L117.72142857142858,71.50800000000001L118.13214285714285,39.294L118.14285714285715,16.966422290039063L118.44285714285714,22.59395709228515L118.55,22.615697497558585L118.91428571428571,21.053328955078136L118.92142857142856,10.473241461181637L118.95357142857142,41.81284482421875L119.13214285714285,27.30650430908203L119.21071428571427,18.716060375976568L119.41785714285714,54.30801635742188L120.18214285714286,72.67279482421876L120.28928571428571,64.36664201660156L120.375,53.10000000000001L120.41071428571429,36.078286816406255L120.63214285714285,68.07740639648436L120.8142857142857,50.15946218261719L121.05357142857143,34.69199999999999L121.225,67.08185485839844L121.86428571428571,39.294L121.9392857142857,12.705057623291008L122,35.227057690429696L122.13214285714285,20.43072626953124L122.35714285714286,58.58384545898437L122.77857142857142,126.732L123,13.351660748291016L123.66785714285714,39.85754362792968L123.95714285714287,64.81633264160156L123.96071428571429,10.974000000000009L124.01071428571429,35.80951992187501L124.20714285714287,34.69199999999999L124.37142857142858,8.850000000000009L124.48214285714286,122.21371201171875L124.5,21.05349100341797L124.53214285714286,48.498000000000005L124.84285714285714,27.644677587890623L125.59285714285714,11.90475488891601L125.63214285714285,37.74741496582032L125.66071428571429,43.896L125.98571428571428,57.70199999999999L126.4,10.62000000000001L126.47500000000001,57.70199999999999L127.02857142857144,72.39824172363281L127.08928571428571,64.45293815917968L127.16785714285714,47.851880859374994L127.21428571428572,8.496000000000008L127.26785714285715,76.11000000000001L127.31785714285715,51.46228330078124L128.0392857142857,30.284624377441414L128.26785714285717,27.398746545410148L128.4107142857143,66.906L128.74285714285713,56.566088671874994L128.775,37.78254272460938L129.00714285714284,15.390279638671878L129.03214285714284,39.294L129.19285714285715,26.33032078857422L129.26071428571427,15.397164532470708L129.48214285714286,28.25042076416016L129.5857142857143,30.314508251953136L129.64285714285714,25.875293371582035L130.1607142857143,29.14038376464844L130.20714285714286,32.1917777709961L130.25357142857143,55.510341577148445L130.25714285714284,10.266000000000009L130.6357142857143,34.189671752929684L130.96785714285713,28.25500781250001L131.30357142857144,23.860924475097647L131.81428571428572,66.906L132.17142857142858,62.303999999999995L132.18214285714285,18.719582226562494L132.27142857142857,9.558000000000009L132.98214285714286,49.57471398925781L133.05357142857144,53.10000000000001L133.18928571428572,56.48667634277343L133.275,66.96419047851562L133.33928571428572,43.896L133.40357142857144,35.677463488769526L133.45357142857142,34.69199999999999L133.63214285714287,27.778248632812492L133.71785714285713,96.59657460937501L134.11071428571427,47.83222763671875L134.18214285714285,16.50585281982421L134.44285714285715,43.896L134.54285714285714,15.488344812011722L134.58928571428572,66.906L134.9892857142857,18.72033197021484L135.42142857142858,39.294L135.47500000000002,43.896L135.56071428571428,45.78241984863282L135.6642857142857,59.847265063476556L135.96785714285713,34.69199999999999L136.06428571428572,13.422409973144529L136.625,51.34508994140624L137.17857142857142,34.69199999999999L137.84642857142856,57.25857524414062L137.8892857142857,50.19125390624999L138.11428571428573,11.419831713867186L138.13214285714287,24.7327704711914L138.23214285714286,60.74095949707031L138.31785714285712,43.552703833007804L138.53571428571428,60.693982763671876L138.6642857142857,19.607077770996085L138.73214285714286,17.563681695556635L139.34642857142856,18.331173962402342L139.725,18.92181639404297L139.9607142857143,39.28305417480469L140.0142857142857,76.11000000000001L140.3,42.041047778320305L140.42142857142855,29.722238854980468L141.14285714285717,53.10000000000001L141.2785714285714,66.906L141.5357142857143,18.716177050781255L141.60357142857143,29.41630671386718L141.63571428571427,30.675340209960932L141.70357142857142,30.31855729980469L141.73214285714286,43.896L141.96071428571426,28.235570654296872L142.34285714285713,54.018952368164065L142.45,21.15944468994141L142.77142857142857,66.906L142.80714285714285,41.37085905761718L142.89285714285717,92.33561938476562L143.09285714285713,34.69199999999999L143.47857142857143,12.348959637451166L143.5357142857143,49.54557985839843L143.77499999999998,63.46895903320312L144.14642857142857,52.56296748046876L144.3,42.979052709960925L144.34285714285713,48.73994897460937L144.57500000000002,65.94262045898438L144.7607142857143,66.906L144.91071428571428,8.850000000000009L145.2214285714286,45.767701538085944L145.30714285714285,62.303999999999995L145.38571428571427,19.65159569091797L145.94285714285715,23.79560170898437L146.0285714285714,30.57864920654297L146.17142857142855,98.17893559570314L146.2392857142857,32.99996901855469L146.3607142857143,28.92668521728515L146.99285714285713,62.303999999999995L147.15714285714284,40.976727246093745L147.68571428571428,12.924575866699213L147.86428571428573,83.913694921875L148,89.73945805664063L148.30357142857142,57.70199999999999L148.60714285714286,46.04657592773437L148.74285714285716,23.853729528808593L148.82857142857142,68.00390991210938L149.07500000000002,76.11000000000001L149.10357142857143,37.155018090820306L149.24285714285716,19.304637231445305L149.39285714285714,48.498000000000005L149.54642857142858,57.70199999999999L149.6357142857143,54.722181665039066L149.85000000000002,48.498000000000005L150.15357142857144,11.352225146484376L150.225,49.53502294921876L150.48928571428573,34.69199999999999L150.6357142857143,70.56514658203126L150.68928571428572,19.891066406250005L150.77142857142857,39.294L151.34285714285713,117.52799999999999L151.4142857142857,48.498000000000005L151.60714285714286,30.36741811523437L151.69285714285712,37.164084155273436L151.75714285714287,22.55917287597657L152.16071428571428,9.91200000000001L152.525,57.70199999999999L152.68214285714285,31.512898937988272L153.16071428571428,49.12422824707032L153.19285714285712,48.498000000000005L153.37857142857143,15.432187499999996L153.4035714285714,28.45118353271485L153.92142857142858,37.163639062499996L154.05357142857142,62.303999999999995L154.0892857142857,22.752252392578136L154.175,80.71199999999999L154.29999999999998,76.11000000000001L154.35,11.773399584960947L154.81785714285715,80.71199999999999L154.93214285714285,78.39918559570313L155.21785714285713,26.295860668945313L155.2357142857143,21.11644786376954L155.41071428571428,15.469226348876948L155.73928571428573,71.50800000000001L156.40714285714284,38.87633876953125L156.58928571428572,69.36686176757813L156.68571428571428,79.43389233398437L157.46785714285713,65.76883981933592L157.55357142857144,55.96939211425782L157.65714285714284,11.43362094726563L157.67857142857142,27.201531555175777L157.7107142857143,48.498000000000005L157.875,71.50800000000001L157.93571428571428,53.36040087890625L158.02142857142857,43.896L158.3464285714286,23.904597583007813L158.51785714285717,55.18289589843749L158.7107142857143,89.44083969726564L158.95357142857142,17.513501806640626L159.10714285714286,65.76515808105468L159.18214285714285,24.713793530273445L159.51785714285717,34.63632451171875L159.55357142857144,34.69199999999999L159.6535714285714,30.482074877929676L160.03214285714284,48.498000000000005L160.20000000000002,30.29076492919921L160.35357142857143,10.266000000000009L160.40714285714287,24.078447363281246L160.8464285714286,48.498000000000005L160.95714285714286,53.63224020996094L161.01785714285714,22.72315499267579L161.35714285714286,9.91200000000001L161.84642857142856,69.31576684570312L161.975,23.61265561523437L162.14642857142857,43.896L162.94642857142858,90.75528076171875L162.97142857142856,29.226757690429686L163.01428571428573,41.351102124023434L163.19642857142858,43.896L163.4857142857143,14.849922967529306L163.72142857142856,41.83042382812499L163.92857142857142,14.177211694335943L164.01785714285714,57.70199999999999L164.35,22.746930725097652L164.60357142857143,82.47140419921875L164.78571428571428,62.303999999999995L164.85,43.896L165.375,66.906L165.47857142857143,39.62996293945313L165.7107142857143,9.91200000000001L165.86785714285716,63.210126782226574L166.01428571428573,74.061570703125L166.16071428571428,36.07670306396485L166.2,43.05706062011719L166.49285714285713,63.86852270507812L166.5392857142857,44.89195773925782L166.9142857142857,39.294L167,71.50800000000001L167.03571428571428,44.498201879882814L167.1857142857143,18.71710180664063L167.35714285714286,53.236509521484365L167.37857142857143,34.69199999999999L167.39642857142857,22.91730618896484L167.6642857142857,51.574131225585944L168.47857142857143,39.58412702636719L168.99642857142857,30.508840942382804L169.18214285714288,27.06008928222656L169.25,78.10314272460937L169.34285714285716,76.61309311523438L169.62142857142857,34.69199999999999L170.00357142857143,53.10000000000001L171.27142857142857,54.299797265625L171.64285714285714,26.9623827758789L171.68214285714288,44.49770061035157L172.05,30.355685815429688L172.05357142857142,10.266000000000009L172.10714285714286,26.484666430664067L172.15357142857144,20.803009643554677L172.225,18.720040283203122L172.27142857142857,66.906L172.31428571428572,52.93671577148438L173.2,57.70199999999999L173.42857142857144,63.57476579589843L173.55,59.464658129882814L173.69285714285715,66.906L173.84285714285713,57.70199999999999L174.15,12.695199682617197L174.44642857142856,38.13730759277343L174.55357142857142,66.15586743164063L174.57857142857142,39.294L174.9607142857143,48.498000000000005L175.2392857142857,100.28800122070311L175.74285714285713,9.91200000000001L175.95357142857142,22.061081652832026L176.05,39.098401171875004L176.36785714285713,28.23335599365234L176.42857142857144,25.34387852783204L176.7607142857143,34.535474267578124L176.85357142857143,10.403137188720699L177.07142857142858,57.70199999999999L177.23214285714286,32.2436267578125L177.4,22.054878442382815L177.65357142857144,12.70522831420899L177.81785714285715,13.108947985839853L177.94642857142856,22.587565905761718L178.21428571428572,9.91200000000001L178.57857142857142,15.47037581176758L178.96428571428572,75.6445453125L179.06785714285715,57.77144311523437L179.10714285714286,27.428790307617188L179.16785714285714,85.314L179.2892857142857,43.04400600585938L179.31785714285715,43.896L179.625,13.389124163818362L179.71785714285716,20.28146462402343L179.7464285714286,32.91607335205079L179.7857142857143,27.226700903320303L179.98571428571427,13.38023095092773L180.07500000000002,10.266000000000009L181.0892857142857,10.266000000000009L181.35357142857143,48.498000000000005L181.51071428571427,66.906L181.6285714285714,66.906L181.78214285714287,34.69199999999999L181.8785714285714,75.72908701171876L182.375,62.303999999999995L182.39642857142857,17.54177708129883L182.94285714285712,48.498000000000005L183.00357142857143,71.14310170898439L183.11785714285713,56.94737761230468L183.26785714285714,23.840024560546883L183.3464285714286,14.850230859374992L183.49285714285716,9.91200000000001L183.5142857142857,12.704185803222664L183.53214285714287,21.105728906250004L184.06785714285715,16.513141754150396L184.14642857142857,38.04506967773437L184.46428571428572,38.20210100097657L184.56785714285715,43.896L184.88214285714287,71.50800000000001L184.95714285714286,17.61851345214844L185.00714285714287,15.452318225097654L185.05714285714288,38.722302099609365L185.3857142857143,39.26695737304688L185.9607142857143,38.85840541992187L186.42142857142858,25.30655771484375L186.53571428571428,25.858423059082025L186.7892857142857,27.015955957031252L187.0142857142857,32.17181557617188L187.16785714285714,63.58817043457032L187.30357142857142,11.901943890380867L187.31071428571428,13.395590972900386L187.35357142857143,41.59949414062501L187.70000000000002,23.856112719726568L188.35357142857143,34.69199999999999L188.5,46.48535097656249L188.6357142857143,62.303999999999995L188.81785714285715,54.558145532226554L189.1,44.82598029785156L189.29642857142855,62.303999999999995L189.425,9.91200000000001L189.52142857142857,25.198346154785163L189.53571428571428,18.27629575195313L189.7892857142857,48.498000000000005L189.95714285714286,62.303999999999995L190.00714285714284,71.50800000000001L190.04285714285714,48.498000000000005L190.1107142857143,53.10000000000001L190.15714285714284,57.31790654296875L190.16785714285714,13.877338000488274L190.47857142857143,39.294L190.58928571428572,41.87769440917969L190.65714285714284,73.93949428710938L190.68571428571428,38.07215551757812L190.7357142857143,52.67722668457032L190.7892857142857,27.393409753417973L190.94285714285715,82.63245864257811L190.99642857142857,60.131865161132815L191.17142857142858,62.303999999999995L191.44285714285715,72.176105859375L191.53214285714284,45.58805690917969L191.60357142857143,34.69199999999999L192.18214285714285,17.672699176025393L192.24285714285713,43.896L192.4035714285714,18.72257255859376L192.65714285714287,61.221966503906245L193.1,39.294L193.53214285714284,34.31899064941406L193.7107142857143,13.402974975585945L193.775,53.10000000000001L194.5,34.69199999999999L194.59642857142856,18.333578759765636L194.63214285714287,20.461066040039054L194.64999999999998,22.76613669433593L195.20714285714286,57.70199999999999L195.51428571428573,84.93679467773438L195.85714285714286,30.370440856933588L196.00714285714284,41.19197497558593L196.38214285714287,71.98076198730467L196.59285714285716,18.720083496093757L196.825,37.76027080078124L196.88571428571427,69.39802690429687L196.95357142857142,53.10000000000001L197.06428571428572,64.89382631835939L197.1,36.44477966308594L197.54285714285714,25.46767049560546L197.75714285714287,46.97964594726562L198.2357142857143,18.253310815429693L198.5035714285714,9.91200000000001L198.67499999999998,58.93594409179688L198.78214285714284,28.228548559570314L199.025,65.18598002929687L199.5857142857143,66.906L199.625,15.52593894653321L199.66071428571428,38.47596701660156L199.7892857142857,10.266000000000009L200.31785714285712,13.38744318237305L200.81785714285712,53.10000000000001L201.09642857142856,76.11000000000001L201.2642857142857,16.610232476806644L201.3,38.8594857421875L201.50357142857143,48.498000000000005L201.75714285714287,38.42209350585939L201.85,18.744215734863285L201.89285714285714,21.195387011718747L202.08214285714286,34.69199999999999L202.15357142857144,33.28172354736327L202.85357142857143,43.896L202.95,36.18384942626953L203.42857142857144,49.53233942871094L203.56428571428572,10.974000000000009L203.65357142857144,21.059344189453117L204.1,66.906L204.32500000000002,77.456375390625L204.43214285714288,48.498000000000005L205.12857142857143,17.407191613769537L205.18214285714288,36.95862414550782L205.21428571428572,48.498000000000005L205.29642857142858,57.70199999999999L205.39642857142857,71.58707958984375L205.40714285714284,15.473352099609373L205.50357142857143,24.449544543457023L205.5142857142857,15.46991883544921L205.85714285714286,9.91200000000001L206.09285714285713,48.144000000000005L206.19285714285715,62.303999999999995L207.04642857142858,66.906L207.47857142857143,57.70199999999999L207.7857142857143,43.896L207.9714285714286,43.896L208.05,49.43476040039062L208.44285714285715,70.00958005371095L208.49285714285713,57.174750878906245L208.86428571428573,17.540798309326178L208.96428571428572,43.397984399414064L209.22857142857143,34.05274954833985L209.24285714285713,21.367294372558586L209.37142857142857,53.10000000000001L209.84285714285713,54.70067893066406L209.96785714285716,34.633135400390614L210.06071428571428,22.7559362915039L210.44285714285715,43.896L210.675,66.34920622558593L210.68571428571428,14.122874725341791L210.7392857142857,45.423986206054686L211.0892857142857,62.60023732910157L211.25,28.231841381835935L211.5,82.2045732421875L212.0892857142857,66.906L212.13214285714284,43.16810478515625L212.19285714285715,40.595987109375L212.34642857142856,38.243961328124996L212.54285714285714,17.427773913574217L212.725,57.70199999999999L213.175,10.47340567016601L213.3357142857143,9.91200000000001L213.525,13.377499896240227L213.5607142857143,44.50164594726564L213.6357142857143,26.345713220214833L213.85357142857143,15.49159010009766L214.02857142857144,48.498000000000005L214.1535714285714,69.97530358886719L214.25,43.896L214.30357142857142,39.294L214.73928571428573,81.68313193359376L214.86785714285713,10.468597155761724L215.07142857142858,18.72075977783203L215.22857142857143,45.00068569335937L215.31428571428572,34.69199999999999L215.49285714285716,62.67642165527344L215.63214285714287,43.896L215.87142857142857,66.1817735595703L216.10357142857143,50.104374389648434L216.13214285714287,23.24819377441406L216.19285714285712,29.386349377441405L216.21428571428572,25.92672967529296L216.57857142857142,71.50800000000001L216.59285714285716,18.28035344238281L216.62857142857143,45.78064812011719L216.8357142857143,25.953666430664068L217.16428571428574,66.906L217.3464285714286,34.69199999999999L217.6392857142857,48.498000000000005L217.70000000000002,62.303999999999995L218.00357142857143,62.303999999999995L218.03571428571428,37.153328466796864L218.53571428571428,57.70199999999999L218.87142857142857,76.11000000000001L218.91071428571428,20.441257250976555L219.00714285714284,43.896L219.07857142857142,25.477974609375003L219.34285714285716,53.10000000000001L219.42142857142858,53.10000000000001L219.70000000000002,88.4357337890625L220.04642857142855,31.762887670898447L220.09285714285716,20.030700219726562L220.30357142857144,39.294L220.50714285714284,20.178831848144522L220.58214285714286,13.36150680541993L220.7892857142857,45.126772265625L221.1607142857143,43.98351042480468L221.54285714285714,54.53981030273438L221.8,57.70199999999999L222.01071428571427,53.275712255859375L222.28214285714284,8.850000000000009L222.31785714285715,10.974000000000009L222.44642857142858,80.71199999999999L222.4857142857143,49.61824233398438L222.625,52.570814941406255L222.76428571428573,39.294L222.80357142857144,13.118172857666007L223.06428571428572,26.587947399902347L223.09285714285716,31.71527354736329L223.7357142857143,58.21158801269531L223.85,36.03902142333983L223.93571428571428,34.69199999999999L223.99642857142857,34.99300803222656L224.30714285714285,34.69199999999999L224.36071428571427,43.896L224.69285714285715,45.27023906249999L224.8,47.73628637695313L224.86071428571427,30.29838984375001L225.11071428571427,26.75249992675781L225.4607142857143,66.906L225.70714285714286,66.906L225.75357142857143,33.00462736816405L225.84642857142856,59.25311374511719L225.92499999999998,14.147207904052742L226.0107142857143,41.97847119140626L226.31071428571428,62.303999999999995L226.70000000000002,32.570899584960934L226.77142857142857,78.98638828124999L227.025,25.232419519042963L227.1142857142857,36.04066999511719L227.24285714285713,44.84517114257813L227.25714285714284,18.338690844726557L227.68214285714285,10.266000000000009L227.83928571428572,82.52162622070311L227.87142857142857,24.894747509765633L227.89999999999998,35.27121046142578L228.075,78.52021625976563L228.36071428571427,41.284541308593745L228.99285714285713,29.743912280273435L229.2142857142857,48.498000000000005L229.5,74.842583203125L229.6857142857143,64.35853959960937L229.86428571428573,57.70199999999999L229.89285714285714,43.896L230.05,71.50800000000001L230.2892857142857,27.70113522949219L230.31071428571428,27.98233663330078L230.3357142857143,28.994157824707028L230.45357142857142,71.50800000000001L230.54642857142858,30.840774279785162L230.95,61.39525019531251L231.15357142857144,42.05098674316405L231.25357142857143,44.441718310546875L231.78928571428574,58.698528149414074L231.82500000000002,42.319273974609374L231.9,14.850696478271486L232.04642857142858,36.77451994628906L232.125,30.348892749023435" style="fill: none;" fill="none"></path></g></g></g></g></g></g><g transform="translate(80, 177)" clip-path="url(#clip_1)"><clipPath id="clip_1"><rect width="250" height="23"></rect></clipPath><g><g><line x1="0" y1="0" x2="0" y2="5" style="visibility: inherit;" fill="rgb(0, 0, 0)" stroke="rgb(204, 204, 204)" stroke-width="1px"></line><line x1="17.857142857142858" y1="0" x2="17.857142857142858" y2="5" style="visibility: inherit;" fill="rgb(0, 0, 0)" stroke="rgb(204, 204, 204)" stroke-width="1px"></line><line x1="35.714285714285715" y1="0" x2="35.714285714285715" y2="5" style="visibility: inherit;" fill="rgb(0, 0, 0)" stroke="rgb(204, 204, 204)" stroke-width="1px"></line><line x1="53.57142857142857" y1="0" x2="53.57142857142857" y2="5" style="visibility: inherit;" fill="rgb(0, 0, 0)" stroke="rgb(204, 204, 204)" stroke-width="1px"></line><line x1="71.42857142857143" y1="0" x2="71.42857142857143" y2="5" style="visibility: inherit;" fill="rgb(0, 0, 0)" stroke="rgb(204, 204, 204)" stroke-width="1px"></line><line x1="89.28571428571429" y1="0" x2="89.28571428571429" y2="5" style="visibility: inherit;" fill="rgb(0, 0, 0)" stroke="rgb(204, 204, 204)" stroke-width="1px"></line><line x1="107.14285714285714" y1="0" x2="107.14285714285714" y2="5" style="visibility: inherit;" fill="rgb(0, 0, 0)" stroke="rgb(204, 204, 204)" stroke-width="1px"></line><line x1="125" y1="0" x2="125" y2="5" style="visibility: inherit;" fill="rgb(0, 0, 0)" stroke="rgb(204, 204, 204)" stroke-width="1px"></line><line x1="142.85714285714286" y1="0" x2="142.85714285714286" y2="5" style="visibility: inherit;" fill="rgb(0, 0, 0)" stroke="rgb(204, 204, 204)" stroke-width="1px"></line><line x1="160.71428571428572" y1="0" x2="160.71428571428572" y2="5" style="visibility: inherit;" fill="rgb(0, 0, 0)" stroke="rgb(204, 204, 204)" stroke-width="1px"></line><line x1="178.57142857142858" y1="0" x2="178.57142857142858" y2="5" style="visibility: inherit;" fill="rgb(0, 0, 0)" stroke="rgb(204, 204, 204)" stroke-width="1px"></line><line x1="196.42857142857142" y1="0" x2="196.42857142857142" y2="5" style="visibility: inherit;" fill="rgb(0, 0, 0)" stroke="rgb(204, 204, 204)" stroke-width="1px"></line><line x1="214.28571428571428" y1="0" x2="214.28571428571428" y2="5" style="visibility: inherit;" fill="rgb(0, 0, 0)" stroke="rgb(204, 204, 204)" stroke-width="1px"></line><line x1="232.14285714285714" y1="0" x2="232.14285714285714" y2="5" style="visibility: inherit;" fill="rgb(0, 0, 0)" stroke="rgb(204, 204, 204)" stroke-width="1px"></line><line x1="250" y1="0" x2="250" y2="5" style="visibility: inherit;" fill="rgb(0, 0, 0)" stroke="rgb(204, 204, 204)" stroke-width="1px"></line></g><g transform="translate(0, 8)"><text x="0" y="0" dx="0em" dy="0.95em" style="text-anchor: middle; visibility: hidden; font-family: Roboto, sans-serif; font-size: 12px; font-weight: 200;" fill="rgb(33, 33, 33)" stroke="none" stroke-width="1px">-5k</text><text x="17.857142857142858" y="0" dx="0em" dy="0.95em" style="text-anchor: middle; visibility: inherit; font-family: Roboto, sans-serif; font-size: 12px; font-weight: 200;" fill="rgb(33, 33, 33)" stroke="none" stroke-width="1px">0</text><text x="35.714285714285715" y="0" dx="0em" dy="0.95em" style="text-anchor: middle; visibility: hidden; font-family: Roboto, sans-serif; font-size: 12px; font-weight: 200;" fill="rgb(33, 33, 33)" stroke="none" stroke-width="1px">5k</text><text x="53.57142857142857" y="0" dx="0em" dy="0.95em" style="text-anchor: middle; visibility: inherit; font-family: Roboto, sans-serif; font-size: 12px; font-weight: 200;" fill="rgb(33, 33, 33)" stroke="none" stroke-width="1px">10k</text><text x="71.42857142857143" y="0" dx="0em" dy="0.95em" style="text-anchor: middle; visibility: hidden; font-family: Roboto, sans-serif; font-size: 12px; font-weight: 200;" fill="rgb(33, 33, 33)" stroke="none" stroke-width="1px">15k</text><text x="89.28571428571429" y="0" dx="0em" dy="0.95em" style="text-anchor: middle; visibility: inherit; font-family: Roboto, sans-serif; font-size: 12px; font-weight: 200;" fill="rgb(33, 33, 33)" stroke="none" stroke-width="1px">20k</text><text x="107.14285714285714" y="0" dx="0em" dy="0.95em" style="text-anchor: middle; visibility: hidden; font-family: Roboto, sans-serif; font-size: 12px; font-weight: 200;" fill="rgb(33, 33, 33)" stroke="none" stroke-width="1px">25k</text><text x="125" y="0" dx="0em" dy="0.95em" style="text-anchor: middle; visibility: inherit; font-family: Roboto, sans-serif; font-size: 12px; font-weight: 200;" fill="rgb(33, 33, 33)" stroke="none" stroke-width="1px">30k</text><text x="142.85714285714286" y="0" dx="0em" dy="0.95em" style="text-anchor: middle; visibility: hidden; font-family: Roboto, sans-serif; font-size: 12px; font-weight: 200;" fill="rgb(33, 33, 33)" stroke="none" stroke-width="1px">35k</text><text x="160.71428571428572" y="0" dx="0em" dy="0.95em" style="text-anchor: middle; visibility: inherit; font-family: Roboto, sans-serif; font-size: 12px; font-weight: 200;" fill="rgb(33, 33, 33)" stroke="none" stroke-width="1px">40k</text><text x="178.57142857142858" y="0" dx="0em" dy="0.95em" style="text-anchor: middle; visibility: hidden; font-family: Roboto, sans-serif; font-size: 12px; font-weight: 200;" fill="rgb(33, 33, 33)" stroke="none" stroke-width="1px">45k</text><text x="196.42857142857142" y="0" dx="0em" dy="0.95em" style="text-anchor: middle; visibility: inherit; font-family: Roboto, sans-serif; font-size: 12px; font-weight: 200;" fill="rgb(33, 33, 33)" stroke="none" stroke-width="1px">50k</text><text x="214.28571428571428" y="0" dx="0em" dy="0.95em" style="text-anchor: middle; visibility: hidden; font-family: Roboto, sans-serif; font-size: 12px; font-weight: 200;" fill="rgb(33, 33, 33)" stroke="none" stroke-width="1px">55k</text><text x="232.14285714285714" y="0" dx="0em" dy="0.95em" style="text-anchor: middle; visibility: inherit; font-family: Roboto, sans-serif; font-size: 12px; font-weight: 200;" fill="rgb(33, 33, 33)" stroke="none" stroke-width="1px">60k</text><text x="250" y="0" dx="0em" dy="0.95em" style="text-anchor: middle; visibility: hidden; font-family: Roboto, sans-serif; font-size: 12px; font-weight: 200;" fill="rgb(33, 33, 33)" stroke="none" stroke-width="1px">65k</text></g><line x1="0" y1="0" x2="250" y2="0" fill="rgb(0, 0, 0)" stroke="rgb(204, 204, 204)" stroke-width="1px"></line></g></g></g></g></svg>